<svg width="34" height="34" viewBox="0 0 34 34" fill="none" xmlns="http://www.w3.org/2000/svg">
<g clip-path="url(#clip0_7_702)">
<path d="M1.41675 29.75H32.5834V4.25H1.41675V29.75ZM2.83341 5.66667H31.1667V28.3333H2.83341V5.66667ZM26.9167 9.91667H7.08341V8.5H26.9167V9.91667ZM11.3334 12.75V11.3333H22.6667V12.75H11.3334ZM28.3334 21.25H29.7501C29.7483 22.4603 29.3585 23.6381 28.6379 24.6105C27.9172 25.5829 26.9038 26.2985 25.7465 26.6525C24.5891 27.0064 23.3487 26.9798 22.2075 26.5767C21.0663 26.1737 20.0844 25.4153 19.4061 24.413C18.7277 23.4107 18.3886 22.2173 18.4386 21.008C18.4885 19.7988 18.9249 18.6374 19.6837 17.6945C20.4424 16.7515 21.4835 16.0767 22.654 15.7692C23.8246 15.4616 25.0629 15.5375 26.1872 15.9857L25.6644 17.3032C24.8201 16.9648 23.8895 16.9062 23.0094 17.1361C22.1293 17.366 21.3462 17.8721 20.7752 18.5802C20.2042 19.2882 19.8754 20.1607 19.8372 21.0695C19.7989 21.9783 20.0533 22.8754 20.5628 23.6289C21.0724 24.3824 21.8102 24.9525 22.6679 25.2555C23.5255 25.5585 24.4578 25.5783 25.3275 25.312C26.1973 25.0457 26.9587 24.5074 27.4997 23.7762C28.0408 23.0451 28.333 22.1596 28.3334 21.25ZM29.2514 16.5665L30.2487 17.5737L24.0806 23.6654L21.3167 20.9015L22.3182 19.8999L24.0862 21.6679L29.2514 16.5665ZM5.66675 21.25H12.7501V22.6667H5.66675V21.25Z" fill="black"/>
</g>
<defs>
<clipPath id="clip0_7_702">
<rect width="34" height="34" fill="white"/>
</clipPath>
</defs>
</svg>
