<svg width="34" height="34" viewBox="0 0 34 34" fill="none" xmlns="http://www.w3.org/2000/svg">
<path d="M31.3778 27.37L25.3694 21.3615L26.1705 20.5604L25.3694 19.7593L22.9671 22.1616L18.9604 18.156L23.7735 13.3407C24.4142 13.5691 25.0846 13.685 25.7731 13.685C27.3594 13.685 28.8512 13.0666 29.9743 11.9456C31.7061 10.2127 32.197 7.63827 31.2259 5.38577L30.8954 4.61864L28.3136 7.20052L26.2353 7.22921L26.2629 5.24658L28.8948 2.61477L28.1298 2.28327C27.3796 1.95814 26.5817 1.79346 25.7614 1.79346C24.1741 1.79346 22.6834 2.41183 21.5624 3.53277C19.9198 5.17433 19.3918 7.57239 20.1695 9.73777L15.3574 14.5498L8.54788 7.74133L9.34901 6.94021L4.94494 2.53508L2.53944 4.93739L6.94563 9.34358L7.74569 8.54246L14.5553 15.351L9.74319 20.163C9.10038 19.9325 8.42676 19.8166 7.73719 19.8166C6.15088 19.8166 4.65913 20.435 3.53713 21.556C1.80207 23.29 1.31119 25.8686 2.28763 28.1233L2.61913 28.8883L5.25094 26.2565L7.23251 26.2299L7.20382 28.3081L4.62194 30.89L5.38907 31.2205C6.13707 31.5424 6.93182 31.7071 7.74888 31.7071C9.33626 31.7071 10.8269 31.0898 11.9479 29.9688C13.5884 28.3283 14.1164 25.9324 13.344 23.7713L18.1593 18.956L22.1659 22.9606L19.7615 25.365L20.5626 26.1661L21.3638 25.365L27.3711 31.3724C27.9056 31.9079 28.6185 32.2022 29.3739 32.2022C30.1294 32.2022 30.8413 31.9079 31.3768 31.3724C32.4807 30.2685 32.4807 28.4718 31.3768 27.3678L31.3778 27.37ZM4.14276 4.93846L4.94388 4.13839L7.74676 6.94127L6.94563 7.74239L4.14276 4.93846ZM12.1636 23.8595C12.9488 25.6827 12.5503 27.7684 11.1489 29.1709C10.2415 30.0783 9.03557 30.5776 7.75101 30.5776C7.38232 30.5776 7.01894 30.5362 6.66619 30.4544L8.33326 28.7873L8.38319 25.0845L4.77707 25.1334L3.05688 26.8536C2.67863 25.2492 3.14294 23.5566 4.34038 22.3603C5.24776 21.4529 6.45476 20.9525 7.73932 20.9525C8.40444 20.9525 9.04938 21.0853 9.65819 21.3488L10.012 21.5018L21.5072 10.0066L21.3542 9.65277C20.5637 7.82633 20.9611 5.74064 22.3657 4.33602C23.2731 3.42864 24.4801 2.92821 25.7636 2.92821C26.1354 2.92821 26.502 2.97071 26.8579 3.05252L25.1388 4.77164L25.0889 8.37777L28.7917 8.32783L30.4598 6.65971C30.8338 8.26089 30.3684 9.95027 29.1753 11.1445C28.2668 12.0519 27.0598 12.5523 25.7753 12.5523C25.1123 12.5523 24.4684 12.4195 23.8617 12.1581L23.5089 12.0062L12.0116 23.5056L12.1636 23.8595ZM30.5778 30.5734C30.2569 30.8943 29.8298 31.0717 29.3761 31.0717C28.9224 31.0717 28.4953 30.8943 28.1744 30.5734L22.167 24.566L24.5704 22.1626L30.5788 28.1711C31.2418 28.8341 31.2418 29.9115 30.5799 30.5734H30.5778Z" fill="black"/>
</svg>
