<svg width="120" height="24" viewBox="0 0 120 24" fill="none" xmlns="http://www.w3.org/2000/svg">
<path d="M8.85009 16.825L12.0001 14.925L15.1501 16.85L14.3251 13.25L17.1001 10.85L13.4501 10.525L12.0001 7.12495L10.5501 10.5L6.90008 10.825L9.67509 13.25L8.85009 16.825ZM12.0001 17.275L7.85008 19.775C7.66675 19.8916 7.47508 19.9416 7.27508 19.9249C7.07508 19.9083 6.90008 19.8416 6.75008 19.725C6.60008 19.6083 6.48342 19.4626 6.40008 19.288C6.31675 19.1133 6.30008 18.9173 6.35008 18.7L7.45008 13.975L3.77508 10.8C3.60842 10.65 3.50442 10.479 3.46308 10.287C3.42175 10.095 3.43408 9.90762 3.50008 9.72495C3.56608 9.54228 3.66608 9.39228 3.80008 9.27495C3.93408 9.15762 4.11742 9.08262 4.35008 9.04995L9.20008 8.62495L11.0751 4.17495C11.1584 3.97495 11.2878 3.82495 11.4631 3.72495C11.6384 3.62495 11.8174 3.57495 12.0001 3.57495C12.1828 3.57495 12.3618 3.62495 12.5371 3.72495C12.7124 3.82495 12.8418 3.97495 12.9251 4.17495L14.8001 8.62495L19.6501 9.04995C19.8834 9.08328 20.0668 9.15828 20.2001 9.27495C20.3334 9.39162 20.4334 9.54162 20.5001 9.72495C20.5668 9.90829 20.5794 10.096 20.5381 10.288C20.4967 10.48 20.3924 10.6506 20.2251 10.8L16.5501 13.975L17.6501 18.7C17.7001 18.9166 17.6834 19.1126 17.6001 19.288C17.5168 19.4633 17.4001 19.609 17.2501 19.725C17.1001 19.841 16.9251 19.9076 16.7251 19.9249C16.5251 19.9423 16.3334 19.8923 16.1501 19.775L12.0001 17.275Z" fill="black"/>
<path d="M32.8501 16.825L36.0001 14.925L39.1501 16.85L38.3251 13.25L41.1001 10.85L37.4501 10.525L36.0001 7.12495L34.5501 10.5L30.9001 10.825L33.6751 13.25L32.8501 16.825ZM36.0001 17.275L31.8501 19.775C31.6668 19.8916 31.4751 19.9416 31.2751 19.9249C31.0751 19.9083 30.9001 19.8416 30.7501 19.725C30.6001 19.6083 30.4834 19.4626 30.4001 19.288C30.3168 19.1133 30.3001 18.9173 30.3501 18.7L31.4501 13.975L27.7751 10.8C27.6084 10.65 27.5044 10.479 27.4631 10.287C27.4218 10.095 27.4341 9.90762 27.5001 9.72495C27.5661 9.54228 27.6661 9.39228 27.8001 9.27495C27.9341 9.15762 28.1174 9.08262 28.3501 9.04995L33.2001 8.62495L35.0751 4.17495C35.1584 3.97495 35.2878 3.82495 35.4631 3.72495C35.6384 3.62495 35.8174 3.57495 36.0001 3.57495C36.1828 3.57495 36.3618 3.62495 36.5371 3.72495C36.7124 3.82495 36.8418 3.97495 36.9251 4.17495L38.8001 8.62495L43.6501 9.04995C43.8834 9.08328 44.0668 9.15828 44.2001 9.27495C44.3334 9.39162 44.4334 9.54162 44.5001 9.72495C44.5668 9.90829 44.5794 10.096 44.5381 10.288C44.4967 10.48 44.3924 10.6506 44.2251 10.8L40.5501 13.975L41.6501 18.7C41.7001 18.9166 41.6834 19.1126 41.6001 19.288C41.5168 19.4633 41.4001 19.609 41.2501 19.725C41.1001 19.841 40.9251 19.9076 40.7251 19.9249C40.5251 19.9423 40.3334 19.8923 40.1501 19.775L36.0001 17.275Z" fill="black"/>
<path d="M56.8501 16.825L60.0001 14.925L63.1501 16.85L62.3251 13.25L65.1001 10.85L61.4501 10.525L60.0001 7.12495L58.5501 10.5L54.9001 10.825L57.6751 13.25L56.8501 16.825ZM60.0001 17.275L55.8501 19.775C55.6668 19.8916 55.4751 19.9416 55.2751 19.9249C55.0751 19.9083 54.9001 19.8416 54.7501 19.725C54.6001 19.6083 54.4834 19.4626 54.4001 19.288C54.3168 19.1133 54.3001 18.9173 54.3501 18.7L55.4501 13.975L51.7751 10.8C51.6084 10.65 51.5044 10.479 51.4631 10.287C51.4218 10.095 51.4341 9.90762 51.5001 9.72495C51.5661 9.54228 51.6661 9.39228 51.8001 9.27495C51.9341 9.15762 52.1174 9.08262 52.3501 9.04995L57.2001 8.62495L59.0751 4.17495C59.1584 3.97495 59.2878 3.82495 59.4631 3.72495C59.6384 3.62495 59.8174 3.57495 60.0001 3.57495C60.1828 3.57495 60.3618 3.62495 60.5371 3.72495C60.7124 3.82495 60.8418 3.97495 60.9251 4.17495L62.8001 8.62495L67.6501 9.04995C67.8834 9.08328 68.0668 9.15828 68.2001 9.27495C68.3334 9.39162 68.4334 9.54162 68.5001 9.72495C68.5668 9.90829 68.5794 10.096 68.5381 10.288C68.4967 10.48 68.3924 10.6506 68.2251 10.8L64.5501 13.975L65.6501 18.7C65.7001 18.9166 65.6834 19.1126 65.6001 19.288C65.5168 19.4633 65.4001 19.609 65.2501 19.725C65.1001 19.841 64.9251 19.9076 64.7251 19.9249C64.5251 19.9423 64.3334 19.8923 64.1501 19.775L60.0001 17.275Z" fill="black"/>
<path d="M80.8501 16.825L84.0001 14.925L87.1501 16.85L86.3251 13.25L89.1001 10.85L85.4501 10.525L84.0001 7.12495L82.5501 10.5L78.9001 10.825L81.6751 13.25L80.8501 16.825ZM84.0001 17.275L79.8501 19.775C79.6668 19.8916 79.4751 19.9416 79.2751 19.9249C79.0751 19.9083 78.9001 19.8416 78.7501 19.725C78.6001 19.6083 78.4834 19.4626 78.4001 19.288C78.3168 19.1133 78.3001 18.9173 78.3501 18.7L79.4501 13.975L75.7751 10.8C75.6084 10.65 75.5044 10.479 75.4631 10.287C75.4218 10.095 75.4341 9.90762 75.5001 9.72495C75.5661 9.54228 75.6661 9.39228 75.8001 9.27495C75.9341 9.15762 76.1174 9.08262 76.3501 9.04995L81.2001 8.62495L83.0751 4.17495C83.1584 3.97495 83.2878 3.82495 83.4631 3.72495C83.6384 3.62495 83.8174 3.57495 84.0001 3.57495C84.1828 3.57495 84.3618 3.62495 84.5371 3.72495C84.7124 3.82495 84.8418 3.97495 84.9251 4.17495L86.8001 8.62495L91.6501 9.04995C91.8834 9.08328 92.0668 9.15828 92.2001 9.27495C92.3334 9.39162 92.4334 9.54162 92.5001 9.72495C92.5668 9.90829 92.5794 10.096 92.5381 10.288C92.4967 10.48 92.3924 10.6506 92.2251 10.8L88.5501 13.975L89.6501 18.7C89.7001 18.9166 89.6834 19.1126 89.6001 19.288C89.5168 19.4633 89.4001 19.609 89.2501 19.725C89.1001 19.841 88.9251 19.9076 88.7251 19.9249C88.5251 19.9423 88.3334 19.8923 88.1501 19.775L84.0001 17.275Z" fill="black"/>
<path d="M104.85 16.825L108 14.925L111.15 16.85L110.325 13.25L113.1 10.85L109.45 10.525L108 7.12495L106.55 10.5L102.9 10.825L105.675 13.25L104.85 16.825ZM108 17.275L103.85 19.775C103.667 19.8916 103.475 19.9416 103.275 19.9249C103.075 19.9083 102.9 19.8416 102.75 19.725C102.6 19.6083 102.483 19.4626 102.4 19.288C102.317 19.1133 102.3 18.9173 102.35 18.7L103.45 13.975L99.7751 10.8C99.6084 10.65 99.5044 10.479 99.4631 10.287C99.4218 10.095 99.4341 9.90762 99.5001 9.72495C99.5661 9.54228 99.6661 9.39228 99.8001 9.27495C99.9341 9.15762 100.117 9.08262 100.35 9.04995L105.2 8.62495L107.075 4.17495C107.158 3.97495 107.288 3.82495 107.463 3.72495C107.638 3.62495 107.817 3.57495 108 3.57495C108.183 3.57495 108.362 3.62495 108.537 3.72495C108.712 3.82495 108.842 3.97495 108.925 4.17495L110.8 8.62495L115.65 9.04995C115.883 9.08328 116.067 9.15828 116.2 9.27495C116.333 9.39162 116.433 9.54162 116.5 9.72495C116.567 9.90829 116.579 10.096 116.538 10.288C116.497 10.48 116.392 10.6506 116.225 10.8L112.55 13.975L113.65 18.7C113.7 18.9166 113.683 19.1126 113.6 19.288C113.517 19.4633 113.4 19.609 113.25 19.725C113.1 19.841 112.925 19.9076 112.725 19.9249C112.525 19.9423 112.333 19.8923 112.15 19.775L108 17.275Z" fill="black"/>
</svg>
