<svg width="34" height="34" viewBox="0 0 34 34" fill="none" xmlns="http://www.w3.org/2000/svg">
<path d="M3.2725 2.72002C3.13438 2.74392 3.00953 2.81299 2.91125 2.91127L2.23125 3.59127C1.98422 3.8383 1.96563 4.23408 2.18875 4.50502L2.72 5.14252V12.92C2.72 13.2945 3.02547 13.6 3.4 13.6C3.78516 13.6 4.08 13.8949 4.08 14.28C4.08 14.6652 3.78516 14.96 3.4 14.96C3.01484 14.96 2.72 14.6652 2.72 14.28H1.36C1.36 15.3983 2.28172 16.32 3.4 16.32C4.51828 16.32 5.44 15.3983 5.44 14.28C5.44 13.4247 4.83437 12.8164 4.08 12.5163V6.80002L11.56 15.895V19.04H0V23.8C0 24.9183 0.921719 25.84 2.04 25.84H4.82375C5.14781 27.7685 6.82391 29.24 8.84 29.24C10.8561 29.24 12.5322 27.7685 12.8562 25.84H22.5037C22.8278 27.7685 24.5039 29.24 26.52 29.24C28.5361 29.24 30.2122 27.7685 30.5363 25.84H31.96C33.0783 25.84 34 24.9183 34 23.8V17.255C34 15.6985 32.9163 14.3225 32.9163 14.3225H32.895L30.09 10.5825V10.5613L30.0688 10.54C29.4419 9.78299 28.5016 8.84002 27.2 8.84002H21.76C20.6417 8.84002 19.72 9.76174 19.72 10.88V19.04H18.36V15.64C18.36 15.4435 18.275 15.2575 18.1262 15.13L3.84625 2.89002C3.70813 2.76517 3.52219 2.70408 3.33625 2.72002C3.315 2.72002 3.29375 2.72002 3.2725 2.72002ZM4.675 5.39752L17 15.9588V19.04H12.92V15.64C12.92 15.486 12.8669 15.3345 12.7712 15.215L4.675 5.39752ZM21.76 10.2H27.2C27.7339 10.2 28.4883 10.7738 29.0063 11.39C29.0116 11.398 29.0222 11.4033 29.0275 11.4113L29.1338 11.56H25.84C24.7563 11.56 23.8 12.4366 23.8 13.6V16.32C23.8 16.8858 24.055 17.3825 24.4163 17.7438C24.7775 18.105 25.2742 18.36 25.84 18.36H32.64V23.8C32.64 24.1772 32.3372 24.48 31.96 24.48H30.5363C30.2122 22.5516 28.5361 21.08 26.52 21.08C24.5039 21.08 22.8278 22.5516 22.5037 24.48H21.08V10.88C21.08 10.5028 21.3828 10.2 21.76 10.2ZM25.84 12.92H30.1537L31.8113 15.13C31.8113 15.13 32.4275 16.1845 32.555 17H25.84C25.7258 17 25.5425 16.915 25.3938 16.7663C25.245 16.6175 25.16 16.4342 25.16 16.32V13.6C25.16 13.2574 25.5638 12.92 25.84 12.92ZM1.36 20.4H19.72V24.48H12.8562C12.5322 22.5516 10.8561 21.08 8.84 21.08C6.82391 21.08 5.14781 22.5516 4.82375 24.48H2.04C1.66547 24.48 1.36 24.1745 1.36 23.8V20.4ZM8.84 22.44C10.3514 22.44 11.56 23.6486 11.56 25.16C11.56 26.6714 10.3514 27.88 8.84 27.88C7.32859 27.88 6.12 26.6714 6.12 25.16C6.12 23.6486 7.32859 22.44 8.84 22.44ZM26.52 22.44C28.0314 22.44 29.24 23.6486 29.24 25.16C29.24 26.6714 28.0314 27.88 26.52 27.88C25.0086 27.88 23.8 26.6714 23.8 25.16C23.8 23.6486 25.0086 22.44 26.52 22.44Z" fill="black"/>
</svg>
